<svg width="73" height="128" fill="none" xmlns="http://www.w3.org/2000/svg"><path d="M14 .426c-.093.248-.168.84-.168 1.298 0 .458-.018.935-.018 1.069-.019.152-.505.248-1.457.286-1.42.057-1.457.076-1.513.553-.056.496-.037.496 1.438.63l1.513.133.019 5c.018 2.748.074 5.21.15 5.477.149.534.727.744.97.343.094-.133.168-2.614.168-5.515V4.434l1.084-.134c.597-.076 1.232-.076 1.382-.019.41.172.84-.42.579-.82-.131-.249-.56-.344-1.57-.42l-1.381-.096-.056-1.24c-.038-.668-.15-1.336-.262-1.47-.299-.381-.71-.286-.877.191ZM58.45.16c-.167.114-.298.667-.373 1.488l-.112 1.297-1.4.096c-1.345.095-1.401.114-1.457.61-.056.44.019.515.69.63.412.076.823.076.935.02.093-.058.43-.058.747 0l.579.114.037 5.476.056 5.458.448.057c.243.038.523-.038.598-.19.093-.134.168-2.615.168-5.516V4.415l.654-.115a4.06 4.06 0 0 1 1.27-.019c.803.153 1.438-.286 1.139-.801-.168-.268-.523-.363-1.587-.44l-1.383-.095-.093-1.24c-.13-1.622-.317-1.927-.915-1.546ZM14.113 19.013c-.038.076-.262.801-.486 1.583-.224.783-.542 1.718-.691 2.061-.13.344-.261.745-.261.897 0 .153-.113.554-.262.897-.15.344-.448 1.279-.691 2.061-.224.782-.542 1.641-.672 1.908a2.67 2.67 0 0 0-.243.993c0 .286-.075.553-.168.61-.094.058-.224.44-.3.82-.074.402-.242.936-.373 1.203-.13.267-.373.992-.56 1.622-.168.63-.467 1.565-.654 2.1-.205.514-.523 1.545-.728 2.289a86.679 86.679 0 0 1-.822 2.672c-.822 2.5-1.12 3.53-1.046 3.625.056.038.28.115.523.134.486.057.822-.668 1.513-3.187.243-.84.542-1.698.672-1.908.15-.21.262-.554.262-.764 0-.21.224-.992.467-1.717.261-.744.672-1.984.915-2.767.243-.782.71-2.233 1.027-3.206.318-.973.58-1.908.58-2.099 0-.19.111-.496.242-.706.13-.21.373-.859.542-1.431.84-2.748 1.158-3.74 1.27-3.874.28-.343.97 1.069 1.475 3.015.075.325.243.764.355.992.13.23.224.554.224.745 0 .172.168.668.355 1.107.187.438.504 1.297.672 1.927.187.63.448 1.393.58 1.717.13.306.447 1.26.709 2.1.243.839.541 1.774.654 2.098.373 1.03 1.718 5.134 1.96 6.011.561 1.909.766 2.157 1.401 1.737.206-.134.206-.344-.037-1.279-.373-1.412-1.4-4.56-1.737-5.362-.15-.324-.261-.687-.261-.801 0-.115-.131-.477-.262-.82-.15-.344-.467-1.26-.69-2.043-.225-.763-.524-1.622-.654-1.908-.15-.267-.262-.63-.262-.782 0-.344-.467-1.756-.822-2.576-.15-.325-.392-1.088-.56-1.718a22.688 22.688 0 0 0-.654-2.004 17.715 17.715 0 0 1-.672-2.003 36.824 36.824 0 0 0-.672-2.042c-.206-.496-.355-1.011-.355-1.164 0-.324-.673-.973-.803-.763ZM58.32 19.28c-.075.133-.205.553-.28.916-.15.706-.598 2.099-.915 2.786-.093.21-.355 1.068-.58 1.889-.205.84-.503 1.775-.634 2.1a18.77 18.77 0 0 0-.56 1.736 50.75 50.75 0 0 1-.505 1.622c-.298.744-.84 2.518-.97 3.148-.076.306-.244.82-.374 1.145-.355.802-.691 1.794-.86 2.576-.074.363-.354 1.183-.597 1.832-.262.63-.523 1.47-.598 1.851-.075.4-.373 1.317-.672 2.061l-.523 1.336.392.172c.504.19 1.12-.458 1.42-1.508a66.42 66.42 0 0 1 1.195-3.93c.261-.745.616-1.852.784-2.482.187-.63.486-1.526.654-2.003.187-.477.467-1.374.635-2.004.187-.63.486-1.584.672-2.099.187-.534.486-1.47.654-2.1.168-.629.41-1.354.542-1.621.13-.267.373-1.03.56-1.718.635-2.385 1.14-2.824 1.531-1.335.262.973.58 1.927.916 2.767.13.305.373 1.087.56 1.717.168.63.485 1.546.672 2.042.206.496.355 1.011.355 1.164 0 .153.243.916.523 1.68.84 2.213.99 2.709 1.14 3.415.074.363.242.84.354 1.05.112.21.411 1.068.673 1.908.242.84.69 2.213.97 3.053.28.84.542 1.641.56 1.775.057.152.281.229.58.19.448-.057.523-.133.486-.63-.02-.324-.113-.743-.206-.953-.243-.535-.86-2.29-1.233-3.53a22.046 22.046 0 0 0-.579-1.718 43.028 43.028 0 0 1-.71-2.195 82.489 82.489 0 0 0-.84-2.576c-.392-1.106-.672-2.003-1.456-4.484-.262-.84-.56-1.698-.654-1.908-.224-.516-1.812-5.343-2.11-6.393-.225-.859-.692-1.202-.972-.744ZM36.394 45.366c0 .076-.747 1.164-1.662 2.423a498.96 498.96 0 0 1-4.184 5.687c-5.528 7.442-6.145 8.434-5.547 8.816.317.21.691-.153 1.756-1.622a133.26 133.26 0 0 1 1.606-2.195c.69-.916 5.397-7.346 5.79-7.938 1.438-2.137 2.372-3.225 2.689-3.187.224.038.747.63 1.27 1.393.486.725 1.438 2.157 2.11 3.149.673.992 1.55 2.29 1.943 2.862.392.573 1.158 1.737 1.718 2.576 1.905 2.863 3.156 4.618 3.418 4.847.317.287.86.077.86-.343 0-.248-2.634-4.37-4.166-6.507-.187-.267-.784-1.126-1.344-1.909-.56-.782-1.084-1.526-1.177-1.622-.075-.114-.336-.534-.598-.954-.243-.42-.56-.84-.69-.916-.132-.076-.244-.229-.244-.343 0-.096-.317-.63-.69-1.183-2.205-3.206-2.186-3.187-2.615-3.187-.131 0-.243.057-.243.153ZM66.09 46.282c-.112.305-.187 11.564-.187 30.799 0 16.678-.038 30.417-.094 30.57-.074.191-1.213.229-5.92.191-5.23-.038-5.846-.019-6.145.267-.448.42-.448.973 0 1.221.393.21 12.644.286 13.167.076.28-.114.3-3.072.3-31.562 0-17.308-.057-31.581-.113-31.753-.187-.477-.803-.363-1.008.19ZM5.222 46.339c-.28.534-.28 62.571 0 62.934.169.191 1.495.248 6.705.248 7.06 0 7.098 0 6.836-1.03l-.112-.478-5.883-.057c-4.968-.057-5.92-.095-6.163-.343-.243-.267-.28-3.683-.28-30.704 0-22.021-.057-30.494-.206-30.685-.299-.362-.691-.305-.897.115ZM21.957 46.11c-.075.057-.131 3.72-.131 8.11v7.995l.523-.057.504-.057.056-7.633c.019-4.198 0-7.824-.056-8.072-.093-.4-.616-.572-.896-.286ZM50.327 46.282c-.15.381-.15 15.227 0 15.61.186.476.952.38 1.083-.135.205-.763.13-15.017-.075-15.418-.243-.44-.859-.477-1.008-.057Z" fill="#fff"/><path d="m1.693 51.863-.411.153.093 61.178 8.012.058c5.753.019 8.087-.02 8.255-.172.225-.172.374-1.393.225-1.546-.038-.019-3.493-.095-7.714-.152l-7.657-.096-.094-29.711c-.056-16.335-.13-29.73-.186-29.788-.056-.057-.28-.02-.523.076ZM70.012 52.035c-.131.248-.187 9.56-.187 29.692 0 16.144-.056 29.406-.15 29.502-.074.076-3.51.172-7.6.191l-7.472.057-.056.744c-.037.458.038.802.187.897.13.095 3.754.172 8.031.172 6.817 0 7.807-.038 8.069-.306.26-.267.298-3.282.298-30.436 0-20.418-.056-30.284-.187-30.532-.26-.477-.672-.458-.933.019ZM35.938 68.818c-.014.06-.014 1.302 0 2.738.015 1.436-.044 2.708-.117 2.828-.103.15-.763.194-3.08.209-2.744.015-2.978.03-3.11.3-.323.597-.015.657 3.11.672 1.613 0 2.977.045 3.036.105.059.06.117 4.727.132 10.367.015 5.655.03 10.382.044 10.517 0 .33.425.494.675.27.176-.15.205-1.945.205-10.622 0-8.183.044-10.472.19-10.562.089-.06 1.512-.12 3.14-.12 3.007 0 3.374-.06 3.198-.568-.132-.33-.88-.419-3.33-.344-1.188.03-2.376.015-2.64-.045l-.484-.105-.147-5.67-.396-.044c-.235-.03-.41 0-.426.074Z" fill="#fff"/><path d="M47.73 65.479c-.298.152-.317 1.66-.317 21.315 0 17.613-.037 21.181-.261 21.372-.169.153-3.175.191-10.87.172l-10.627-.057-.187-42.745h-1.12l-.057 21.716c-.018 14.75.019 21.83.15 22.097.187.344.504.363 12.027.363h11.823l.205-.477c.168-.363.224-6.068.206-21.716 0-11.679-.038-21.41-.094-21.64-.13-.496-.448-.648-.877-.4Z" fill="#fff"/><path d="M21.77 69.963c-.075.057-.13 9.618-.13 21.239 0 16.163.055 21.162.223 21.334.169.172 3.698.229 14.755.229 12.27 0 14.549-.038 14.642-.267.056-.153.113-9.77.131-21.373l.038-21.124-.411-.095c-.224-.058-.505-.058-.598.019-.15.076-.206 6.392-.206 20.514 0 11.201-.056 20.513-.112 20.685-.112.267-1.475.305-13.521.305-10.833 0-13.448-.057-13.597-.248-.15-.172-.206-6.221-.224-20.628 0-11.22-.056-20.456-.112-20.552-.112-.21-.71-.229-.878-.038ZM13.253 117.307c-.13.248-.112.439.02.572.167.172 6.125.229 23.345.229H59.74v-1.145H36.58c-22.318 0-23.158.019-23.327.344ZM6.773 121.772c-.3.954-1.57.916 29.77.878 27.044-.058 29.248-.077 29.416-.382.15-.229.13-.401-.038-.611-.224-.267-3.044-.305-29.64-.305H6.904l-.13.42ZM.124 126.905c-.094.076-.15.325-.112.573l.056.458 36.046.057c19.834.019 36.232 0 36.475-.057.28-.077.411-.248.411-.573 0-.267-.112-.477-.224-.477-14.941-.076-72.522-.057-72.652.019Z" fill="#fff"/></svg>